PathFileType	4	(X/Y/Z)	C:/Users/beibeiliu/ov580/test_trc\sequence.21_training_dense_left.trc
DataRate	CameraRate	NumFrames	NumMarkers	Units	OrigDataRate	OrigDataStartFrame	OrigNumFrames
120	120	9	19	mm	120	298	397
Frame#	Time	ThumbCMC			ThumbMCP			ThumbIP			ThumbTip			IndexMCP			IndexPIP			IndexTip			MiddleMCP			MiddlePIP			MiddleTip			RingMCP			RingPIP			RingTip			PinkyMCP			PinkyPIP			PinkyTip			BackHand1			BackHand2			BackHand3	
		X0	Y0	Z0	X1	Y1	Z1	X2	Y2	Z2	X3	Y3	Z3	X4	Y4	Z4	X5	Y5	Z5	X6	Y6	Z6	X7	Y7	Z7	X8	Y8	Z8	X9	Y9	Z9	X10	Y10	Z10	X11	Y11	Z11	X12	Y12	Z12	X13	Y13	Z13	X14	Y14	Z14	X15	Y15	Z15	X16	Y16	Z16	X17	Y17	Z17	X18	Y18	Z18	
297	2.475	-172.986	49.6266	6.80812	-160.726	41.9769	-17.7146	-162.886	29.0922	-40.4428	-173.545	8.07076	-50.3084	-195.52	55.9901	-52.6488	-195.46	57.9013	-73.7103	-199.957	58.0533	-96.4711	-213.953	32.0216	-54.575	-214.862	32.9953	-78.9333	-221.524	29.0809	-104.337	-218.455	14.6554	-48.6914	-221.808	6.95354	-66.9928	-222.366	7.82643	-90.319	-221.531	-5.9399	-32.9419	-221.135	-9.26995	-49.0668	-226.865	-20.1404	-69.6118	-218.398	21.5587	-2.19337	-220.727	24.1629	20.8464	-205.574	44.9889	3.62566	
298	2.48333	-174.763	50.1693	4.7031	-158.749	42.5855	-21.6964	-165.951	24.4129	-41.3052	-172.628	5.00896	-48.6871	-199.624	47.2263	-56.3165	-200.102	45.687	-77.4933	-202.666	47.6671	-100.786	-212.945	27.6306	-58.819	-216.778	22.3511	-78.0463	-225.109	11.0547	-103.736	-217.829	9.13984	-48.532	-220.88	0.786252	-69.1818	-223.338	-6.93418	-83.4596	-219.8	-9.17277	-32.6236	-221.063	-22.3077	-46.2717	-225.237	-31.6279	-56.8552	-217.637	23.8545	-3.13883	-218.468	28.4865	21.5896	-207.016	46.5309	3.05708	
299	2.49167	-176.361	52.1582	1.71144	-162.922	41.9635	-20.4941	-166.914	22.2662	-42.2562	-175.71	-1.85047	-48.4414	-201.202	40.4466	-58.1314	-203.093	37.8219	-77.3486	-203.978	36.4829	-97.0323	-216.075	16.923	-57.5252	-218.064	12.1348	-75.5712	-222.602	4.22701	-98.0045	-218.745	1.10637	-40.635	-221.878	-10.2345	-62.294	-222.751	-14.0771	-79.5889	-219.246	-15.2455	-23.0405	-218.347	-23.1479	-38.0571	-224.373	-39.4092	-55.8634	-220.291	21.5726	-1.31649	-220.855	28.0652	21.5133	-208.651	45.5287	1.16898	
300	2.5	-177.739	53.0223	6.15616	-165.258	40.4576	-24.5881	-168.522	21.4395	-38.0783	-174.137	-3.87214	-43.0793	-203.475	34.0961	-57.0964	-200.891	33.9545	-77.5405	-204.958	25.5393	-98.1327	-215.523	10.8144	-53.5005	-217.089	3.31103	-73.9027	-220.357	-5.95726	-95.0558	-219.61	-4.19876	-40.657	-219.355	-12.7639	-56.639	-224.605	-25.6198	-77.8636	-219.254	-20.4011	-21.9459	-218.803	-30.9571	-31.9076	-221.123	-42.6679	-45.1356	-218.905	20.4542	0.0978368	-221.263	31.6198	19.3059	-212.089	43.6387	0.986815	
301	2.50833	-181.753	51.293	2.36037	-166.021	39.4925	-25.0752	-164.635	19.1142	-37.1911	-171.022	-3.59178	-38.757	-201.75	28.197	-53.5864	-200.562	24.1141	-75.4744	-201.013	18.8473	-98.3687	-213.217	6.07863	-48.5511	-215.536	-8.58799	-72.8299	-220.51	-20.6052	-89.1391	-215.734	-6.47631	-36.2868	-219.811	-22.7943	-51.8569	-221.542	-31.8726	-74.0032	-218.663	-22.8645	-16.1839	-217.065	-35.7071	-27.5965	-219.671	-47.4543	-40.3684	-221.202	15.6922	2.55594	-224.039	29.4934	21.3623	-213.381	45.5091	-1.5606	
302	2.51667	-182.145	52.6181	0.853117	-165.611	37.5193	-25.4158	-165.395	17.935	-34.0976	-171.596	-11.8679	-34.7721	-200.24	25.0769	-54.5906	-200.472	16.147	-73.7264	-201.84	6.58057	-98.2731	-213.511	-3.05585	-48.4956	-214.539	-16.328	-68.725	-218.13	-27.6817	-85.4135	-217.409	-14.9516	-35.0796	-219.306	-30.1204	-45.5459	-221.615	-42.8413	-66.5294	-217.469	-25.1942	-12.972	-216.592	-39.0867	-24.4247	-218.737	-54.6997	-33.7809	-222.481	14.9405	3.11292	-225.268	26.526	23.0508	-213.019	43.8651	-0.154907	
303	2.525	-184.578	49.7636	2.07782	-166.813	36.042	-24.7112	-167.185	14.0014	-31.5831	-168.924	-13.1022	-31.9616	-202.777	14.9316	-51.5655	-202.09	3.95882	-73.2705	-202.394	-2.78616	-92.278	-214.99	-9.26698	-47.6673	-215.842	-25.5235	-62.795	-217.961	-38.9067	-82.7183	-217.883	-19.5953	-25.4631	-218.136	-32.8235	-42.8088	-220.842	-49.6026	-57.6262	-217.676	-26.265	-8.18293	-217.61	-47.2196	-15.9413	-218.201	-58.898	-23.995	-223.577	11.1201	1.57724	-228.694	25.3442	21.2681	-215.564	39.9834	-0.547543	
304	2.53333	-187.523	46.5912	1.29992	-167.25	33.8065	-22.8286	-170.207	9.73971	-30.1545	-174.523	-15.1418	-25.6374	-201.854	9.70442	-50.6646	-201.667	-2.11724	-71.1489	-203.918	-11.938	-89.1192	-215.108	-14.4075	-40.1738	-216.335	-28.6458	-54.5911	-220.5	-48.0262	-74.0965	-218.806	-24.7857	-25.9814	-219.396	-40.1097	-41.0824	-220.673	-53.8981	-49.48	-219.076	-32.2462	-3.21724	-217.051	-48.3127	-11.7356	-219.49	-64.6409	-18.7257	-225.496	13.321	5.05918	-226.26	27.6561	20.6839	-216.051	39.3397	-3.59856	
305	2.54167	-190.538	44.9936	-0.468713	-172.732	31.8579	-19.1944	-169.796	6.98923	-30.8261	-173.331	-18.6943	-24.1401	-201.624	6.81304	-53.6645	-203.297	-5.11934	-67.9845	-204.929	-17.2765	-90.2257	-216.292	-16.3669	-36.5907	-216.533	-32.0477	-53.6556	-219.752	-51.5025	-72.9618	-220.256	-27.7452	-20.6469	-221.733	-44.415	-30.9103	-220.744	-58.8731	-47.5849	-221.238	-32.4639	3.47797	-219.66	-51.102	-6.27404	-218.942	-69.7478	-15.579	-226.448	8.48704	6.51133	-232.642	22.6331	21.1674	-219.558	35.8695	-0.843809	
